<svg xmlns="http://www.w3.org/2000/svg" viewBox="0 0 75.591 75.591">
  <linearGradient id="A" gradientTransform="matrix(0 -54.944 -54.944 0 23.62 79.474)" gradientUnits="userSpaceOnUse"
                  x2="1">
    <stop offset="0" stop-color="#ff1b2d"/>
    <stop offset=".614" stop-color="#ff1b2d"/>
    <stop offset="1" stop-color="#a70014"/>
  </linearGradient>
  <linearGradient id="B" gradientTransform="matrix(0 -48.595 -48.595 0 37.854 76.235)" gradientUnits="userSpaceOnUse"
                  x2="1">
    <stop offset="0" stop-color="#9c0000"/>
    <stop offset=".7" stop-color="#ff4b4b"/>
  </linearGradient>
  <g transform="matrix(1.3333 0 0 -1.3333 0 107.2)">
    <path
      d="M28.346 80.398C12.691 80.398 0 67.707 0 52.052 0 36.85 11.968 24.443 26.996 23.739a28.63 28.63 0 0 1 1.35-.033c7.257 0 13.876 2.729 18.891 7.214-3.323-2.204-7.207-3.471-11.359-3.471-6.75 0-12.796 3.349-16.862 8.63-3.134 3.7-5.164 9.169-5.303 15.307v1.335c.138 6.138 2.168 11.608 5.302 15.307 4.067 5.281 10.112 8.63 16.862 8.63 4.153 0 8.038-1.268 11.361-3.473-4.99 4.464-11.569 7.188-18.786 7.214l-.107.001z"
      fill="url(#A)"/>
    <path
      d="M19.016 68.025c2.601 3.071 5.961 4.923 9.631 4.923 8.252 0 14.941-9.356 14.941-20.897s-6.689-20.897-14.941-20.897c-3.67 0-7.03 1.851-9.63 4.922 4.066-5.281 10.111-8.63 16.862-8.63 4.152 0 8.037 1.268 11.359 3.471 5.802 5.191 9.455 12.735 9.455 21.133S53.04 67.992 47.24 73.182c-3.323 2.205-7.209 3.473-11.361 3.473-6.75 0-12.796-3.349-16.862-8.63"
      fill="url(#B)"/>
  </g>
  <defs/>
</svg>
